<svg width="30" height="41" fill="none" xmlns="http://www.w3.org/2000/svg"><path fill-rule="evenodd" clip-rule="evenodd" d="M13.858.02C7.474.542 2.113 5.017.474 11.19.136 12.463.005 13.528 0 15.056c-.004 1.443.078 2.296.36 3.702 1.217 6.067 5.593 13.165 12.122 19.662 2.52 2.508 2.516 2.508 5.036 0 6.53-6.497 10.905-13.595 12.122-19.662.282-1.406.364-2.259.36-3.702-.005-1.528-.136-2.593-.474-3.866C28 5.44 23.195 1.095 17.34.17c-.783-.125-2.763-.21-3.482-.15zm2.206 10.915c.913.227 2.064 1.12 2.545 1.975.407.723.524 1.196.524 2.106 0 1.279-.35 2.12-1.26 3.02-.811.804-1.715 1.173-2.873 1.173-1.158 0-2.062-.369-2.874-1.173-.908-.9-1.26-1.741-1.26-3.02 0-1.264.348-2.11 1.23-2.99a4.155 4.155 0 013.968-1.091z" fill="#004BA9"/></svg>