<svg width="30" height="22" fill="none" xmlns="http://www.w3.org/2000/svg"><path fill-rule="evenodd" clip-rule="evenodd" d="M2.454.097a3.294 3.294 0 00-.45.132c-.078.048 10.755 10.167 11.233 10.493 1.018.694 2.505.694 3.527 0C17.146 10.462 27.995.367 27.989.277c-.002-.028-.115-.096-.252-.151C27.371-.022 3.057-.05 2.454.097zM.275 1.908c-.272.598-.274.669-.275 8.834 0 6.824.012 7.888.102 8.231a3.27 3.27 0 002.354 2.347c.58.151 24.508.151 25.087 0a3.27 3.27 0 002.355-2.347c.089-.342.102-1.407.102-8.21 0-8.003-.005-8.18-.26-8.776l-.108-.254-5.425 5.065c-2.983 2.786-5.617 5.226-5.854 5.422-.895.745-2.096 1.163-3.34 1.164-1.451.001-2.638-.469-3.729-1.477-.319-.294-9.891-9.21-10.72-9.985l-.207-.193-.082.18z" fill="#004BA9"/></svg>