<svg width="30" height="30" fill="none" xmlns="http://www.w3.org/2000/svg"><path fill-rule="evenodd" clip-rule="evenodd" d="M4.636.11C3.81.328 3.178.76 2.372 1.667 1.835 2.27.626 3.81.42 4.153-.074 4.977-.138 6.56.26 8.11c.544 2.117 1.95 4.822 3.825 7.355 1.175 1.588 2.059 2.575 4.582 5.119 2.168 2.186 3.284 3.245 4.4 4.176 2.886 2.406 6.202 4.281 8.791 4.97 1.32.35 2.722.36 3.618.026.355-.133 1.359-.863 2.456-1.785 1.138-.956 1.58-1.515 1.881-2.377.121-.348.151-.547.157-1.045.007-.74-.071-1.087-.405-1.787-.81-1.701-2.274-3.274-4.088-4.393-.855-.526-1.524-.736-2.355-.736-.86 0-1.915.388-2.995 1.1-.289.19-.615.377-.725.415-.422.144-1.244.037-1.642-.213a17.618 17.618 0 01-.738-.545c-1.956-1.502-3.984-3.54-5.53-5.558-.536-.699-.714-1.129-.711-1.72.001-.412.101-.675.454-1.197.576-.851 1.015-1.883 1.113-2.614.11-.827-.087-1.673-.6-2.568A11.19 11.19 0 008.226.99C6.853.094 5.74-.18 4.636.11z" fill="#004BA9"/></svg>