<svg width="30" height="30" fill="none" xmlns="http://www.w3.org/2000/svg"><path fill-rule="evenodd" clip-rule="evenodd" d="M13.417.083C9.828.488 6.654 2.059 4.142 4.674c-5.202 5.414-5.545 13.91-.8 19.785.538.664 1.824 1.925 2.46 2.411 4.576 3.494 10.629 4.111 15.756 1.607 1.576-.77 2.609-1.497 3.89-2.74 3.048-2.957 4.712-7.11 4.525-11.294-.22-4.901-2.635-9.21-6.69-11.93-2.816-1.89-6.537-2.806-9.866-2.43zm1.992 3.702l.184.185v10.435H26.03l.184.184a.565.565 0 010 .832l-.184.184H14.76l-.184-.184-.184-.184V3.97l.184-.185a.605.605 0 01.416-.184c.146 0 .3.068.416.184z" fill="#004BA9"/></svg>